# xmcd
#
# Track frame offsets: 
#        150
#        22468
#        40767
#        64905
#        82639
#        99723
#        117653
#        131524
#        150167
#        178335
#        201490
#        223965
#        241965
#        254696
#        268888
#        280238
#        297262
#        318186
#
# Disc length: 4626 seconds
#
# Revision: 0
# Processed by: cddbd v1.5.2PL0 Copyright (c) Steve Scherf et al.
# Submitted via: ExactAudioCopy v0.95b4
#
DISCID=1c121012
DTITLE=Alvin Lee - The Best Songs CD3
DYEAR=2010
DGENRE=Blues-rock
TTITLE0=My Baby's Come Back To Me
TTITLE1=Shot In The Dark
TTITLE2=Motel Blues
TTITLE3=A Little Bit Of Love
TTITLE4=Hang On
TTITLE5=City Lights
TTITLE6=Rock'N'Roll Guitar Picker
TTITLE7=I Don't Wanna Stop
TTITLE8=Long Legs
TTITLE9=Keep On Rockin'
TTITLE10=Anything For You
TTITLE11=Ordinary Man
TTITLE12=I Can't Take It
TTITLE13=Heartache
TTITLE14=Can't Sleep At Nite
TTITLE15=Too Late To Run Foe Cover
TTITLE16=Remember Me
TTITLE17=Take It Easy
EXTD=
EXTT0=
EXTT1=
EXTT2=
EXTT3=
EXTT4=
EXTT5=
EXTT6=
EXTT7=
EXTT8=
EXTT9=
EXTT10=
EXTT11=
EXTT12=
EXTT13=
EXTT14=
EXTT15=
EXTT16=
EXTT17=
PLAYORDER=
